# xmcd
#
# Track frame offsets: 
#        150
#        21350
#        38462
#        55115
#        71410
#        88467
#        107737
#        124922
#        144835
#        162695
#        178100
#        206487
#        234837
#        250672
#        268382
#        286280
#        305620
#        329040
#
# Disc length: 4593 seconds
#
# Revision: 1
# Processed by: cddbd v1.5.2PL0 Copyright (c) Steve Scherf et al.
# Submitted via: ExactAudioCopy v1.0b3
#
DISCID=0d11ef12
DTITLE=Z Z Hill - Love Is So Good When You're Stealing It
DYEAR=1978
DGENRE=Blues
TTITLE0=Universal Love
TTITLE1=This Time They Told The Truth
TTITLE2=Stop By And Love Me Sometime
TTITLE3=That's All That's Left
TTITLE4=You Got Me Doing The Dance
TTITLE5=A Message To The Ladies
TTITLE6=Let's Make A Deal
TTITLE7=Love Is So Good When You're Stealing It
TTITLE8=Need You By My Side
TTITLE9=Near But Yet So Far
TTITLE10=Let's Have A Party
TTITLE11=I Wanna Dane With You
TTITLE12=Just Because We're No Longer Lovers
TTITLE13=I Want To Be Your Every Need
TTITLE14=Whip It On Me Baby
TTITLE15=I Don't Want Our Love To Be No Secret
TTITLE16=I Will Understand
TTITLE17=Tell It Like It Is
EXTD=
EXTT0=
EXTT1=
EXTT2=
EXTT3=
EXTT4=
EXTT5=
EXTT6=
EXTT7=
EXTT8=
EXTT9=
EXTT10=
EXTT11=
EXTT12=
EXTT13=
EXTT14=
EXTT15=
EXTT16=
EXTT17=
PLAYORDER=
